<?xml version="1.0" encoding="UTF-8"?><svg xmlns="http://www.w3.org/2000/svg" xmlns:xlink="http://www.w3.org/1999/xlink" fill-opacity="1" color-rendering="auto" color-interpolation="auto" stroke="black" text-rendering="auto" stroke-linecap="square" width="960" stroke-miterlimit="10" stroke-opacity="1" shape-rendering="auto" fill="black" stroke-dasharray="none" font-weight="normal" stroke-width="1" height="295" font-family="'Dialog'" font-style="normal" stroke-linejoin="miter" font-size="12" stroke-dashoffset="0" image-rendering="auto">
  <!--Generated by ySVG-->
  <defs id="genericDefs"/>
  <g>
    <defs id="defs1">
      <linearGradient x1="685.5569" gradientUnits="userSpaceOnUse" x2="873.8597" y1="269.0547" y2="331.9453" id="linearGradient1" spreadMethod="reflect">
        <stop stop-opacity="1" stop-color="rgb(232,238,247)" offset="0%"/>
        <stop stop-opacity="1" stop-color="rgb(183,201,227)" offset="100%"/>
      </linearGradient>
      <linearGradient x1="309.8486" gradientUnits="userSpaceOnUse" x2="498.1514" y1="382.5547" y2="445.4453" id="linearGradient2" spreadMethod="reflect">
        <stop stop-opacity="1" stop-color="rgb(232,238,247)" offset="0%"/>
        <stop stop-opacity="1" stop-color="rgb(183,201,227)" offset="100%"/>
      </linearGradient>
      <linearGradient x1="554.3069" gradientUnits="userSpaceOnUse" x2="742.6097" y1="382.5547" y2="445.4453" id="linearGradient3" spreadMethod="reflect">
        <stop stop-opacity="1" stop-color="rgb(232,238,247)" offset="0%"/>
        <stop stop-opacity="1" stop-color="rgb(183,201,227)" offset="100%"/>
      </linearGradient>
      <linearGradient x1="798.7653" gradientUnits="userSpaceOnUse" x2="987.0681" y1="382.5547" y2="445.4453" id="linearGradient4" spreadMethod="reflect">
        <stop stop-opacity="1" stop-color="rgb(232,238,247)" offset="0%"/>
        <stop stop-opacity="1" stop-color="rgb(183,201,227)" offset="100%"/>
      </linearGradient>
      <linearGradient x1="1043.2236" gradientUnits="userSpaceOnUse" x2="1231.5264" y1="382.5547" y2="445.4453" id="linearGradient5" spreadMethod="reflect">
        <stop stop-opacity="1" stop-color="rgb(232,238,247)" offset="0%"/>
        <stop stop-opacity="1" stop-color="rgb(183,201,227)" offset="100%"/>
      </linearGradient>
      <linearGradient x1="1287.682" gradientUnits="userSpaceOnUse" x2="1475.9847" y1="382.5547" y2="445.4453" id="linearGradient6" spreadMethod="reflect">
        <stop stop-opacity="1" stop-color="rgb(232,238,247)" offset="0%"/>
        <stop stop-opacity="1" stop-color="rgb(183,201,227)" offset="100%"/>
      </linearGradient>
      <linearGradient x1="65.3903" gradientUnits="userSpaceOnUse" x2="253.693" y1="155.5547" y2="218.4453" id="linearGradient7" spreadMethod="reflect">
        <stop stop-opacity="1" stop-color="rgb(232,238,247)" offset="0%"/>
        <stop stop-opacity="1" stop-color="rgb(183,201,227)" offset="100%"/>
      </linearGradient>
      <linearGradient x1="554.3069" gradientUnits="userSpaceOnUse" x2="742.6097" y1="155.5547" y2="218.4453" id="linearGradient8" spreadMethod="reflect">
        <stop stop-opacity="1" stop-color="rgb(232,238,247)" offset="0%"/>
        <stop stop-opacity="1" stop-color="rgb(183,201,227)" offset="100%"/>
      </linearGradient>
      <linearGradient x1="798.7653" gradientUnits="userSpaceOnUse" x2="987.0681" y1="155.5547" y2="218.4453" id="linearGradient9" spreadMethod="reflect">
        <stop stop-opacity="1" stop-color="rgb(232,238,247)" offset="0%"/>
        <stop stop-opacity="1" stop-color="rgb(183,201,227)" offset="100%"/>
      </linearGradient>
      <linearGradient x1="1043.2236" gradientUnits="userSpaceOnUse" x2="1231.5264" y1="155.5547" y2="218.4453" id="linearGradient10" spreadMethod="reflect">
        <stop stop-opacity="1" stop-color="rgb(232,238,247)" offset="0%"/>
        <stop stop-opacity="1" stop-color="rgb(183,201,227)" offset="100%"/>
      </linearGradient>
      <linearGradient x1="309.8486" gradientUnits="userSpaceOnUse" x2="498.1514" y1="155.5547" y2="218.4453" id="linearGradient11" spreadMethod="reflect">
        <stop stop-opacity="1" stop-color="rgb(232,238,247)" offset="0%"/>
        <stop stop-opacity="1" stop-color="rgb(183,201,227)" offset="100%"/>
      </linearGradient>
      <linearGradient x1="685.5569" gradientUnits="userSpaceOnUse" x2="873.8597" y1="19.5547" y2="82.4453" id="linearGradient12" spreadMethod="reflect">
        <stop stop-opacity="1" stop-color="rgb(232,238,247)" offset="0%"/>
        <stop stop-opacity="1" stop-color="rgb(183,201,227)" offset="100%"/>
      </linearGradient>
      <clipPath clipPathUnits="userSpaceOnUse" id="clipPath1">
        <path d="M0 0 L960 0 L960 295 L0 295 L0 0 Z"/>
      </clipPath>
      <clipPath clipPathUnits="userSpaceOnUse" id="clipPath2">
        <path d="M60 14 L1481 14 L1481 450.6615 L60 450.6615 L60 14 Z"/>
      </clipPath>
    </defs>
    <g fill="url(#linearGradient1)" transform="matrix(0.6756,0,0,0.6756,-40.5348,-9.4581)" stroke="url(#linearGradient1)">
      <path d="M685.5569 281.6328 C691.2061 269.0547 868.2106 269.0547 873.8597 281.6328 L873.8597 319.3672 C868.2106 331.9453 691.2061 331.9453 685.5569 319.3672 Z" clip-path="url(#clipPath2)" stroke="none"/>
    </g>
    <g stroke-linecap="butt" transform="matrix(0.6756,0,0,0.6756,-40.5348,-9.4581)" stroke-miterlimit="1.45">
      <path fill="none" d="M685.5569 281.6328 C691.2061 269.0547 868.2106 269.0547 873.8597 281.6328 L873.8597 319.3672 C868.2106 331.9453 691.2061 331.9453 685.5569 319.3672 Z" clip-path="url(#clipPath2)"/>
      <path fill="none" d="M873.8597 281.6328 C868.2106 294.2109 691.2061 294.2109 685.5569 281.6328" clip-path="url(#clipPath2)"/>
      <text x="734.6014" font-size="14" y="297.1982" clip-path="url(#clipPath2)" font-family="sans-serif" stroke="none" xml:space="preserve">Changement</text>
      <text x="759.2552" font-size="14" y="313.4951" clip-path="url(#clipPath2)" font-family="sans-serif" stroke="none" xml:space="preserve">d'état</text>
    </g>
    <g fill="url(#linearGradient2)" transform="matrix(0.6756,0,0,0.6756,-40.5348,-9.4581)" stroke="url(#linearGradient2)">
      <path d="M309.8486 382.5547 L498.1514 382.5547 L498.1514 445.4453 L309.8486 445.4453 Z" clip-path="url(#clipPath2)" stroke="none"/>
    </g>
    <g stroke-linecap="butt" transform="matrix(0.6756,0,0,0.6756,-40.5348,-9.4581)" stroke-miterlimit="1.45">
      <path fill="none" d="M309.8486 382.5547 L498.1514 382.5547 L498.1514 445.4453 L309.8486 445.4453 Z" clip-path="url(#clipPath2)"/>
      <text x="392.7275" font-size="14" y="418.8467" clip-path="url(#clipPath2)" font-family="sans-serif" stroke="none" xml:space="preserve">m2</text>
    </g>
    <g fill="url(#linearGradient3)" transform="matrix(0.6756,0,0,0.6756,-40.5348,-9.4581)" stroke="url(#linearGradient3)">
      <rect x="554.307" width="188.3027" height="62.8906" y="382.5547" clip-path="url(#clipPath2)" stroke="none"/>
    </g>
    <g stroke-linecap="butt" transform="matrix(0.6756,0,0,0.6756,-40.5348,-9.4581)" stroke-miterlimit="1.45">
      <rect fill="none" x="554.307" width="188.3027" height="62.8906" y="382.5547" clip-path="url(#clipPath2)"/>
      <path fill="none" d="M564.3069 382.5547 L564.3069 445.4453 M732.6097 382.5547 L732.6097 445.4453 M564.3069 382.5547 Z" clip-path="url(#clipPath2)"/>
      <text x="597.3836" font-size="14" y="418.8467" clip-path="url(#clipPath2)" font-family="sans-serif" stroke="none" xml:space="preserve">Envois de mail</text>
    </g>
    <g fill="url(#linearGradient4)" transform="matrix(0.6756,0,0,0.6756,-40.5348,-9.4581)" stroke="url(#linearGradient4)">
      <rect x="798.7653" width="188.3027" height="62.8906" y="382.5547" clip-path="url(#clipPath2)" stroke="none"/>
    </g>
    <g stroke-linecap="butt" transform="matrix(0.6756,0,0,0.6756,-40.5348,-9.4581)" stroke-miterlimit="1.45">
      <rect fill="none" x="798.7653" width="188.3027" height="62.8906" y="382.5547" clip-path="url(#clipPath2)"/>
      <path fill="none" d="M808.7653 382.5547 L808.7653 445.4453 M977.0681 382.5547 L977.0681 445.4453 M808.7653 382.5547 Z" clip-path="url(#clipPath2)"/>
      <text x="838.1745" font-size="14" y="402.5498" clip-path="url(#clipPath2)" font-family="sans-serif" stroke="none" xml:space="preserve">Attachement et</text>
      <text x="846.2341" font-size="14" y="418.8467" clip-path="url(#clipPath2)" font-family="sans-serif" stroke="none" xml:space="preserve">détachement</text>
      <text x="842.6452" font-size="14" y="435.1436" clip-path="url(#clipPath2)" font-family="sans-serif" stroke="none" xml:space="preserve">des minuteurs</text>
    </g>
    <g fill="url(#linearGradient5)" transform="matrix(0.6756,0,0,0.6756,-40.5348,-9.4581)" stroke="url(#linearGradient5)">
      <path d="M1043.2236 382.5547 L1231.5264 382.5547 L1231.5264 445.4453 L1043.2236 445.4453 Z" clip-path="url(#clipPath2)" stroke="none"/>
    </g>
    <g stroke-linecap="butt" transform="matrix(0.6756,0,0,0.6756,-40.5348,-9.4581)" stroke-miterlimit="1.45">
      <path fill="none" d="M1043.2236 382.5547 L1231.5264 382.5547 L1231.5264 445.4453 L1043.2236 445.4453 Z" clip-path="url(#clipPath2)"/>
      <text x="1126.1025" font-size="14" y="418.8467" clip-path="url(#clipPath2)" font-family="sans-serif" stroke="none" xml:space="preserve">m3</text>
    </g>
    <g fill="url(#linearGradient6)" transform="matrix(0.6756,0,0,0.6756,-40.5348,-9.4581)" stroke="url(#linearGradient6)">
      <rect x="1287.682" y="382.5547" clip-path="url(#clipPath2)" width="188.3027" rx="31.4453" ry="31.4453" height="62.8906" stroke="none"/>
    </g>
    <g stroke-linecap="butt" transform="matrix(0.6756,0,0,0.6756,-40.5348,-9.4581)" stroke-miterlimit="1.45">
      <rect x="1287.682" y="382.5547" clip-path="url(#clipPath2)" fill="none" width="188.3027" rx="31.4453" ry="31.4453" height="62.8906"/>
      <text x="1360.3207" font-size="14" y="402.5498" clip-path="url(#clipPath2)" font-family="sans-serif" stroke="none" xml:space="preserve">Fin du</text>
      <text x="1337.7655" font-size="14" y="418.8467" clip-path="url(#clipPath2)" font-family="sans-serif" stroke="none" xml:space="preserve">changement</text>
      <text x="1361.3802" font-size="14" y="435.1436" clip-path="url(#clipPath2)" font-family="sans-serif" stroke="none" xml:space="preserve">d'état</text>
    </g>
    <g fill="url(#linearGradient7)" transform="matrix(0.6756,0,0,0.6756,-40.5348,-9.4581)" stroke="url(#linearGradient7)">
      <ellipse rx="94.1514" ry="31.4453" clip-path="url(#clipPath2)" cx="159.5417" cy="187" stroke="none"/>
    </g>
    <g stroke-linecap="butt" transform="matrix(0.6756,0,0,0.6756,-40.5348,-9.4581)" stroke-miterlimit="1.45">
      <ellipse rx="94.1514" fill="none" ry="31.4453" clip-path="url(#clipPath2)" cx="159.5417" cy="187"/>
      <text x="114.5749" font-size="14" y="175.5498" clip-path="url(#clipPath2)" font-family="sans-serif" stroke="none" xml:space="preserve">Demande de</text>
      <text x="115.4738" font-size="14" y="191.8467" clip-path="url(#clipPath2)" font-family="sans-serif" stroke="none" xml:space="preserve">changement</text>
      <text x="139.0885" font-size="14" y="208.1436" clip-path="url(#clipPath2)" font-family="sans-serif" stroke="none" xml:space="preserve">d'état</text>
    </g>
    <g fill="url(#linearGradient8)" transform="matrix(0.6756,0,0,0.6756,-40.5348,-9.4581)" stroke="url(#linearGradient8)">
      <path d="M554.3069 165.5547 L742.6097 155.5547 L742.6097 218.4453 L554.3069 218.4453 Z" clip-path="url(#clipPath2)" stroke="none"/>
    </g>
    <g stroke-linecap="butt" transform="matrix(0.6756,0,0,0.6756,-40.5348,-9.4581)" stroke-miterlimit="1.45">
      <path fill="none" d="M554.3069 165.5547 L742.6097 155.5547 L742.6097 218.4453 L554.3069 218.4453 Z" clip-path="url(#clipPath2)"/>
      <text x="603.0472" font-size="14" y="175.5498" clip-path="url(#clipPath2)" font-family="sans-serif" stroke="none" xml:space="preserve">Confirmation</text>
      <text x="642.5931" font-size="14" y="191.8467" clip-path="url(#clipPath2)" font-family="sans-serif" stroke="none" xml:space="preserve">+</text>
      <text x="561.3069" font-size="14" y="208.1436" clip-path="url(#clipPath2)" font-family="sans-serif" stroke="none" xml:space="preserve">paramètres de transition</text>
    </g>
    <g fill="url(#linearGradient9)" transform="matrix(0.6756,0,0,0.6756,-40.5348,-9.4581)" stroke="url(#linearGradient9)">
      <path d="M892.9167 155.5547 L987.0681 187 L892.9167 218.4453 L798.7653 187 Z" clip-path="url(#clipPath2)" stroke="none"/>
    </g>
    <g stroke-linecap="butt" transform="matrix(0.6756,0,0,0.6756,-40.5348,-9.4581)" stroke-miterlimit="1.45">
      <path fill="none" d="M892.9167 155.5547 L987.0681 187 L892.9167 218.4453 L798.7653 187 Z" clip-path="url(#clipPath2)"/>
      <text x="881.6442" font-size="14" y="191.8467" clip-path="url(#clipPath2)" font-family="sans-serif" stroke="none" xml:space="preserve">m0</text>
    </g>
    <g fill="url(#linearGradient10)" transform="matrix(0.6756,0,0,0.6756,-40.5348,-9.4581)" stroke="url(#linearGradient10)">
      <path d="M1137.375 155.5547 L1231.5264 187 L1137.375 218.4453 L1043.2236 187 Z" clip-path="url(#clipPath2)" stroke="none"/>
    </g>
    <g stroke-linecap="butt" transform="matrix(0.6756,0,0,0.6756,-40.5348,-9.4581)" stroke-miterlimit="1.45">
      <path fill="none" d="M1137.375 155.5547 L1231.5264 187 L1137.375 218.4453 L1043.2236 187 Z" clip-path="url(#clipPath2)"/>
      <text x="1126.1025" font-size="14" y="191.8467" clip-path="url(#clipPath2)" font-family="sans-serif" stroke="none" xml:space="preserve">m1</text>
    </g>
    <g fill="url(#linearGradient11)" transform="matrix(0.6756,0,0,0.6756,-40.5348,-9.4581)" stroke="url(#linearGradient11)">
      <path d="M404 155.5547 L498.1514 187 L404 218.4453 L309.8486 187 Z" clip-path="url(#clipPath2)" stroke="none"/>
    </g>
    <g stroke-linecap="butt" transform="matrix(0.6756,0,0,0.6756,-40.5348,-9.4581)" stroke-miterlimit="1.45">
      <path fill="none" d="M404 155.5547 L498.1514 187 L404 218.4453 L309.8486 187 Z" clip-path="url(#clipPath2)"/>
      <text x="392.7275" font-size="14" y="191.8467" clip-path="url(#clipPath2)" font-family="sans-serif" stroke="none" xml:space="preserve">m0</text>
    </g>
    <g fill="url(#linearGradient12)" transform="matrix(0.6756,0,0,0.6756,-40.5348,-9.4581)" stroke="url(#linearGradient12)">
      <rect x="685.557" y="19.5547" clip-path="url(#clipPath2)" width="188.3027" rx="31.4453" ry="31.4453" height="62.8906" stroke="none"/>
    </g>
    <g stroke-linecap="butt" transform="matrix(0.6756,0,0,0.6756,-40.5348,-9.4581)" stroke-miterlimit="1.45">
      <rect x="685.557" y="19.5547" clip-path="url(#clipPath2)" fill="none" width="188.3027" rx="31.4453" ry="31.4453" height="62.8906"/>
      <text x="749.0286" font-size="14" y="47.6982" clip-path="url(#clipPath2)" font-family="sans-serif" stroke="none" xml:space="preserve">Message</text>
      <text x="751.657" font-size="14" y="63.9951" clip-path="url(#clipPath2)" font-family="sans-serif" stroke="none" xml:space="preserve">d'erreur</text>
    </g>
    <g stroke-linecap="butt" transform="matrix(0.6756,0,0,0.6756,-40.5348,-9.4581)" stroke-miterlimit="1.45">
      <path fill="none" d="M685.5519 300.5 L404 300.5 L404 374.5492" clip-path="url(#clipPath2)"/>
    </g>
    <g stroke-linecap="butt" transform="matrix(0.6756,0,0,0.6756,-40.5348,-9.4581)" stroke-miterlimit="1.45">
      <path d="M404 382.5492 L409 370.5492 L404 373.5492 L399 370.5492 Z" clip-path="url(#clipPath2)" stroke="none"/>
      <path fill="none" d="M498.1487 414 L546.3313 414" clip-path="url(#clipPath2)"/>
      <path d="M554.3313 414 L542.3313 409 L545.3313 414 L542.3313 419 Z" clip-path="url(#clipPath2)" stroke="none"/>
      <path fill="none" d="M742.607 414 L790.7897 414" clip-path="url(#clipPath2)"/>
      <path d="M798.7897 414 L786.7897 409 L789.7897 414 L786.7897 419 Z" clip-path="url(#clipPath2)" stroke="none"/>
      <path fill="none" d="M987.0654 414 L1035.248 414" clip-path="url(#clipPath2)"/>
      <path d="M1043.248 414 L1031.248 409 L1034.248 414 L1031.248 419 Z" clip-path="url(#clipPath2)" stroke="none"/>
      <path fill="none" d="M1231.5237 414 L1279.7063 414" clip-path="url(#clipPath2)"/>
      <path d="M1287.7063 414 L1275.7063 409 L1278.7063 414 L1275.7063 419 Z" clip-path="url(#clipPath2)" stroke="none"/>
      <path fill="none" d="M742.607 187 L790.7897 187" clip-path="url(#clipPath2)"/>
      <path d="M798.7897 187 L786.7897 182 L789.7897 187 L786.7897 192 Z" clip-path="url(#clipPath2)" stroke="none"/>
      <path fill="none" d="M987.0654 187 L1035.248 187" clip-path="url(#clipPath2)" stroke="rgb(51,153,102)"/>
      <path fill="rgb(51,153,102)" d="M1043.248 187 L1031.248 182 L1034.248 187 L1031.248 192 Z" clip-path="url(#clipPath2)" stroke="none"/>
      <text x="1006.4886" y="200.1387" clip-path="url(#clipPath2)" fill="rgb(51,153,102)" font-family="sans-serif" stroke="none" xml:space="preserve">OK</text>
      <path fill="none" d="M1137.375 218.4508 L1137.375 300.5 L881.884 300.5" clip-path="url(#clipPath2)" stroke="rgb(51,153,102)"/>
      <path fill="rgb(51,153,102)" d="M873.884 300.5 L885.884 305.5 L882.884 300.5 L885.884 295.5 Z" clip-path="url(#clipPath2)" stroke="none"/>
      <text x="884.025" y="313.6387" clip-path="url(#clipPath2)" fill="rgb(51,153,102)" font-family="sans-serif" stroke="none" xml:space="preserve">OK</text>
      <path fill="none" d="M253.6904 187 L301.873 187" clip-path="url(#clipPath2)"/>
      <path d="M309.873 187 L297.873 182 L300.873 187 L297.873 192 Z" clip-path="url(#clipPath2)" stroke="none"/>
      <path fill="none" d="M498.1487 187 L546.3313 187" clip-path="url(#clipPath2)" stroke="rgb(51,153,102)"/>
      <path fill="rgb(51,153,102)" d="M554.3313 187 L542.3313 182 L545.3313 187 L542.3313 192 Z" clip-path="url(#clipPath2)" stroke="none"/>
      <text x="503.5331" y="182.1699" clip-path="url(#clipPath2)" fill="rgb(51,153,102)" font-family="sans-serif" stroke="none" xml:space="preserve">OK</text>
      <path fill="none" d="M404 155.5566 L404 51 L677.5519 51" clip-path="url(#clipPath2)" stroke="red"/>
      <path fill="red" d="M685.5519 51 L673.5519 46 L676.5519 51 L673.5519 56 Z" clip-path="url(#clipPath2)" stroke="none"/>
      <text x="596.4549" y="46.1699" clip-path="url(#clipPath2)" fill="red" font-family="sans-serif" stroke="none" xml:space="preserve">KO</text>
      <path fill="none" d="M892.9167 155.5566 L892.9167 51 L881.8735 51" clip-path="url(#clipPath2)" stroke="red"/>
      <path fill="red" d="M873.8735 51 L885.8735 56 L882.8735 51 L885.8735 46 Z" clip-path="url(#clipPath2)" stroke="none"/>
      <text x="894.9167" y="142.2832" clip-path="url(#clipPath2)" fill="red" font-family="sans-serif" stroke="none" xml:space="preserve">KO</text>
      <path fill="none" d="M1137.375 155.5566 L1137.375 51 L881.884 51" clip-path="url(#clipPath2)" stroke="red"/>
      <path fill="red" d="M873.884 51 L885.884 56 L882.884 51 L885.884 46 Z" clip-path="url(#clipPath2)" stroke="none"/>
      <text x="1053.4277" y="64.1387" clip-path="url(#clipPath2)" fill="red" font-family="sans-serif" stroke="none" xml:space="preserve">KO</text>
    </g>
  </g>
</svg>
