<svg xmlns="http://www.w3.org/2000/svg" xmlns:xlink="http://www.w3.org/1999/xlink" fill-opacity="1" color-rendering="auto" color-interpolation="auto" stroke="black" text-rendering="auto" stroke-linecap="square" width="900" stroke-miterlimit="10" stroke-opacity="1" shape-rendering="auto" fill="black" stroke-dasharray="none" font-weight="normal" stroke-width="1" height="247" font-family="'Dialog'" font-style="normal" stroke-linejoin="miter" font-size="12" stroke-dashoffset="0" image-rendering="auto">
  <!--Generated by ySVG-->
  <defs id="genericDefs"/>
  <g>
    <defs id="defs1">
      <linearGradient x1="309.8486" gradientUnits="userSpaceOnUse" x2="498.1514" y1="382.5547" y2="445.4453" id="linearGradient1" spreadMethod="reflect">
        <stop stop-opacity="1" stop-color="rgb(232,238,247)" offset="0%"/>
        <stop stop-opacity="1" stop-color="rgb(183,201,227)" offset="100%"/>
      </linearGradient>
      <linearGradient x1="554.3069" gradientUnits="userSpaceOnUse" x2="742.6097" y1="382.5547" y2="445.4453" id="linearGradient2" spreadMethod="reflect">
        <stop stop-opacity="1" stop-color="rgb(232,238,247)" offset="0%"/>
        <stop stop-opacity="1" stop-color="rgb(183,201,227)" offset="100%"/>
      </linearGradient>
      <linearGradient x1="798.7653" gradientUnits="userSpaceOnUse" x2="987.0681" y1="382.5547" y2="445.4453" id="linearGradient3" spreadMethod="reflect">
        <stop stop-opacity="1" stop-color="rgb(232,238,247)" offset="0%"/>
        <stop stop-opacity="1" stop-color="rgb(183,201,227)" offset="100%"/>
      </linearGradient>
      <linearGradient x1="1043.2236" gradientUnits="userSpaceOnUse" x2="1231.5264" y1="382.5547" y2="445.4453" id="linearGradient4" spreadMethod="reflect">
        <stop stop-opacity="1" stop-color="rgb(232,238,247)" offset="0%"/>
        <stop stop-opacity="1" stop-color="rgb(183,201,227)" offset="100%"/>
      </linearGradient>
      <linearGradient x1="1287.682" gradientUnits="userSpaceOnUse" x2="1475.9847" y1="382.5547" y2="445.4453" id="linearGradient5" spreadMethod="reflect">
        <stop stop-opacity="1" stop-color="rgb(232,238,247)" offset="0%"/>
        <stop stop-opacity="1" stop-color="rgb(183,201,227)" offset="100%"/>
      </linearGradient>
      <linearGradient x1="301.0539" gradientUnits="userSpaceOnUse" x2="489.3566" y1="145.2822" y2="217.841" id="linearGradient6" spreadMethod="reflect">
        <stop stop-opacity="1" stop-color="rgb(232,238,247)" offset="0%"/>
        <stop stop-opacity="1" stop-color="rgb(183,201,227)" offset="100%"/>
      </linearGradient>
      <linearGradient x1="619.671" gradientUnits="userSpaceOnUse" x2="807.9737" y1="144.6779" y2="218.4453" id="linearGradient7" spreadMethod="reflect">
        <stop stop-opacity="1" stop-color="rgb(232,238,247)" offset="0%"/>
        <stop stop-opacity="1" stop-color="rgb(183,201,227)" offset="100%"/>
      </linearGradient>
      <linearGradient x1="943.7891" gradientUnits="userSpaceOnUse" x2="1132.0918" y1="151.9291" y2="214.8197" id="linearGradient8" spreadMethod="reflect">
        <stop stop-opacity="1" stop-color="rgb(232,238,247)" offset="0%"/>
        <stop stop-opacity="1" stop-color="rgb(183,201,227)" offset="100%"/>
      </linearGradient>
      <linearGradient x1="945.3326" gradientUnits="userSpaceOnUse" x2="1133.6354" y1="276.4078" y2="339.2984" id="linearGradient9" spreadMethod="reflect">
        <stop stop-opacity="1" stop-color="rgb(232,238,247)" offset="0%"/>
        <stop stop-opacity="1" stop-color="rgb(183,201,227)" offset="100%"/>
      </linearGradient>
      <linearGradient x1="1276.5287" gradientUnits="userSpaceOnUse" x2="1464.8314" y1="221.3794" y2="284.27" id="linearGradient10" spreadMethod="reflect">
        <stop stop-opacity="1" stop-color="rgb(232,238,247)" offset="0%"/>
        <stop stop-opacity="1" stop-color="rgb(183,201,227)" offset="100%"/>
      </linearGradient>
      <linearGradient x1="646.7654" gradientUnits="userSpaceOnUse" x2="793.2346" y1="275.4242" y2="337.1777" id="linearGradient11" spreadMethod="reflect">
        <stop stop-opacity="1" stop-color="rgb(232,238,247)" offset="0%"/>
        <stop stop-opacity="1" stop-color="rgb(183,201,227)" offset="100%"/>
      </linearGradient>
      <clipPath clipPathUnits="userSpaceOnUse" id="clipPath1">
        <path d="M0 0 L900 0 L900 247 L0 247 L0 0 Z"/>
      </clipPath>
      <clipPath clipPathUnits="userSpaceOnUse" id="clipPath2">
        <path d="M286 129 L1491 129 L1491 459.7056 L286 459.7056 L286 129 Z"/>
      </clipPath>
    </defs>
    <g fill="white" transform="scale(0.7469,0.7469) translate(-286,-129)" stroke="white">
      <rect x="286" width="1205" height="331" y="129" clip-path="url(#clipPath2)" stroke="none"/>
    </g>
    <g fill="url(#linearGradient1)" transform="matrix(0.7469,0,0,0.7469,-213.61,-96.3485)" stroke="url(#linearGradient1)">
      <path d="M309.8486 382.5547 L498.1514 382.5547 L498.1514 445.4453 L309.8486 445.4453 Z" clip-path="url(#clipPath2)" stroke="none"/>
    </g>
    <g stroke-linecap="butt" transform="matrix(0.7469,0,0,0.7469,-213.61,-96.3485)" stroke-miterlimit="1.45">
      <path fill="none" d="M309.8486 382.5547 L498.1514 382.5547 L498.1514 445.4453 L309.8486 445.4453 Z" clip-path="url(#clipPath2)"/>
      <text x="392.7275" font-size="14" y="418.8467" clip-path="url(#clipPath2)" font-family="sans-serif" stroke="none" xml:space="preserve">m2</text>
    </g>
    <g fill="url(#linearGradient2)" transform="matrix(0.7469,0,0,0.7469,-213.61,-96.3485)" stroke="url(#linearGradient2)">
      <rect x="554.307" width="188.3027" height="62.8906" y="382.5547" clip-path="url(#clipPath2)" stroke="none"/>
    </g>
    <g stroke-linecap="butt" transform="matrix(0.7469,0,0,0.7469,-213.61,-96.3485)" stroke-miterlimit="1.45">
      <rect fill="none" x="554.307" width="188.3027" height="62.8906" y="382.5547" clip-path="url(#clipPath2)"/>
      <path fill="none" d="M564.3069 382.5547 L564.3069 445.4453 M732.6097 382.5547 L732.6097 445.4453 M564.3069 382.5547 Z" clip-path="url(#clipPath2)"/>
      <text x="582.2147" font-size="14" y="418.8467" clip-path="url(#clipPath2)" font-family="sans-serif" stroke="none" xml:space="preserve">Envois de courriels</text>
    </g>
    <g fill="url(#linearGradient3)" transform="matrix(0.7469,0,0,0.7469,-213.61,-96.3485)" stroke="url(#linearGradient3)">
      <rect x="798.7653" width="188.3027" height="62.8906" y="382.5547" clip-path="url(#clipPath2)" stroke="none"/>
    </g>
    <g stroke-linecap="butt" transform="matrix(0.7469,0,0,0.7469,-213.61,-96.3485)" stroke-miterlimit="1.45">
      <rect fill="none" x="798.7653" width="188.3027" height="62.8906" y="382.5547" clip-path="url(#clipPath2)"/>
      <path fill="none" d="M808.7653 382.5547 L808.7653 445.4453 M977.0681 382.5547 L977.0681 445.4453 M808.7653 382.5547 Z" clip-path="url(#clipPath2)"/>
      <text x="838.1745" font-size="14" y="402.5498" clip-path="url(#clipPath2)" font-family="sans-serif" stroke="none" xml:space="preserve">Attachement et</text>
      <text x="846.2341" font-size="14" y="418.8467" clip-path="url(#clipPath2)" font-family="sans-serif" stroke="none" xml:space="preserve">détachement</text>
      <text x="842.6452" font-size="14" y="435.1436" clip-path="url(#clipPath2)" font-family="sans-serif" stroke="none" xml:space="preserve">des minuteurs</text>
    </g>
    <g fill="url(#linearGradient4)" transform="matrix(0.7469,0,0,0.7469,-213.61,-96.3485)" stroke="url(#linearGradient4)">
      <path d="M1043.2236 382.5547 L1231.5264 382.5547 L1231.5264 445.4453 L1043.2236 445.4453 Z" clip-path="url(#clipPath2)" stroke="none"/>
    </g>
    <g stroke-linecap="butt" transform="matrix(0.7469,0,0,0.7469,-213.61,-96.3485)" stroke-miterlimit="1.45">
      <path fill="none" d="M1043.2236 382.5547 L1231.5264 382.5547 L1231.5264 445.4453 L1043.2236 445.4453 Z" clip-path="url(#clipPath2)"/>
      <text x="1126.1025" font-size="14" y="418.8467" clip-path="url(#clipPath2)" font-family="sans-serif" stroke="none" xml:space="preserve">m3</text>
    </g>
    <g fill="url(#linearGradient5)" transform="matrix(0.7469,0,0,0.7469,-213.61,-96.3485)" stroke="url(#linearGradient5)">
      <rect x="1287.682" y="382.5547" clip-path="url(#clipPath2)" width="188.3027" rx="31.4453" ry="31.4453" height="62.8906" stroke="none"/>
    </g>
    <g stroke-linecap="butt" transform="matrix(0.7469,0,0,0.7469,-213.61,-96.3485)" stroke-miterlimit="1.45">
      <rect x="1287.682" y="382.5547" clip-path="url(#clipPath2)" fill="none" width="188.3027" rx="31.4453" ry="31.4453" height="62.8906"/>
      <text x="1324.8763" font-size="14" y="418.8467" clip-path="url(#clipPath2)" font-family="sans-serif" stroke="none" xml:space="preserve">Fin de transition</text>
    </g>
    <g fill="url(#linearGradient6)" transform="matrix(0.7469,0,0,0.7469,-213.61,-96.3485)" stroke="url(#linearGradient6)">
      <rect x="301.0539" y="145.2822" clip-path="url(#clipPath2)" width="188.3027" rx="36.2794" ry="36.2794" height="72.5589" stroke="none"/>
    </g>
    <g stroke-linecap="butt" transform="matrix(0.7469,0,0,0.7469,-213.61,-96.3485)" stroke-miterlimit="1.45">
      <rect x="301.0539" y="145.2822" clip-path="url(#clipPath2)" fill="none" width="188.3027" rx="36.2794" ry="36.2794" height="72.5589"/>
      <text x="350.2384" font-size="14" y="178.2599" clip-path="url(#clipPath2)" font-family="sans-serif" stroke="none" xml:space="preserve">Demande de</text>
      <text x="361.8561" font-size="14" y="194.5567" clip-path="url(#clipPath2)" font-family="sans-serif" stroke="none" xml:space="preserve">transition</text>
    </g>
    <g fill="url(#linearGradient7)" transform="matrix(0.7469,0,0,0.7469,-213.61,-96.3485)" stroke="url(#linearGradient7)">
      <path d="M619.671 154.6779 L807.9737 144.6779 L807.9737 218.4453 L619.671 218.4453 Z" clip-path="url(#clipPath2)" stroke="none"/>
    </g>
    <g stroke-linecap="butt" transform="matrix(0.7469,0,0,0.7469,-213.61,-96.3485)" stroke-miterlimit="1.45">
      <path fill="none" d="M619.671 154.6779 L807.9737 144.6779 L807.9737 218.4453 L619.671 218.4453 Z" clip-path="url(#clipPath2)"/>
      <text x="668.4112" font-size="14" y="170.1114" clip-path="url(#clipPath2)" font-family="sans-serif" stroke="none" xml:space="preserve">Confirmation</text>
      <text x="707.9571" font-size="14" y="186.4083" clip-path="url(#clipPath2)" font-family="sans-serif" stroke="none" xml:space="preserve">+</text>
      <text x="626.671" font-size="14" y="202.7052" clip-path="url(#clipPath2)" font-family="sans-serif" stroke="none" xml:space="preserve">paramètres de transition</text>
    </g>
    <g fill="url(#linearGradient8)" transform="matrix(0.7469,0,0,0.7469,-213.61,-96.3485)" stroke="url(#linearGradient8)">
      <path d="M1037.9404 151.9291 L1132.0918 183.3744 L1037.9404 214.8197 L943.7891 183.3744 Z" clip-path="url(#clipPath2)" stroke="none"/>
    </g>
    <g stroke-linecap="butt" transform="matrix(0.7469,0,0,0.7469,-213.61,-96.3485)" stroke-miterlimit="1.45">
      <path fill="none" d="M1037.9404 151.9291 L1132.0918 183.3744 L1037.9404 214.8197 L943.7891 183.3744 Z" clip-path="url(#clipPath2)"/>
      <text x="1026.668" font-size="14" y="188.2211" clip-path="url(#clipPath2)" font-family="sans-serif" stroke="none" xml:space="preserve">m0</text>
    </g>
    <g fill="url(#linearGradient9)" transform="matrix(0.7469,0,0,0.7469,-213.61,-96.3485)" stroke="url(#linearGradient9)">
      <path d="M1039.484 276.4078 L1133.6354 307.8531 L1039.484 339.2984 L945.3326 307.8531 Z" clip-path="url(#clipPath2)" stroke="none"/>
    </g>
    <g stroke-linecap="butt" transform="matrix(0.7469,0,0,0.7469,-213.61,-96.3485)" stroke-miterlimit="1.45">
      <path fill="none" d="M1039.484 276.4078 L1133.6354 307.8531 L1039.484 339.2984 L945.3326 307.8531 Z" clip-path="url(#clipPath2)"/>
      <text x="1028.2115" font-size="14" y="312.6998" clip-path="url(#clipPath2)" font-family="sans-serif" stroke="none" xml:space="preserve">m1</text>
    </g>
    <g fill="url(#linearGradient10)" transform="matrix(0.7469,0,0,0.7469,-213.61,-96.3485)" stroke="url(#linearGradient10)">
      <rect x="1276.5287" y="221.3794" clip-path="url(#clipPath2)" width="188.3027" rx="31.4453" ry="31.4453" height="62.8906" stroke="none"/>
    </g>
    <g stroke-linecap="butt" transform="matrix(0.7469,0,0,0.7469,-213.61,-96.3485)" stroke-miterlimit="1.45">
      <rect x="1276.5287" y="221.3794" clip-path="url(#clipPath2)" fill="none" width="188.3027" rx="31.4453" ry="31.4453" height="62.8906"/>
      <text x="1340.0004" font-size="14" y="249.5229" clip-path="url(#clipPath2)" font-family="sans-serif" stroke="none" xml:space="preserve">Message</text>
      <text x="1342.6288" font-size="14" y="265.8198" clip-path="url(#clipPath2)" font-family="sans-serif" stroke="none" xml:space="preserve">d'erreur</text>
    </g>
    <g fill="url(#linearGradient11)" transform="matrix(0.7469,0,0,0.7469,-213.61,-96.3485)" stroke="url(#linearGradient11)">
      <path d="M646.7654 275.4242 L793.2346 275.4242 L793.2346 337.1777 L646.7654 337.1777 Z" clip-path="url(#clipPath2)" stroke="none"/>
    </g>
    <g stroke-linecap="butt" transform="matrix(0.7469,0,0,0.7469,-213.61,-96.3485)" stroke-miterlimit="1.45">
      <path fill="none" d="M646.7654 275.4242 L793.2346 275.4242 L793.2346 337.1777 L646.7654 337.1777 Z" clip-path="url(#clipPath2)"/>
      <text x="674.8931" font-size="14" y="302.9992" clip-path="url(#clipPath2)" font-family="sans-serif" stroke="none" xml:space="preserve">Changement</text>
      <text x="699.5469" font-size="14" y="319.2961" clip-path="url(#clipPath2)" font-family="sans-serif" stroke="none" xml:space="preserve">d'état</text>
    </g>
    <g stroke-linecap="butt" transform="matrix(0.7469,0,0,0.7469,-213.61,-96.3485)" stroke-miterlimit="1.45">
      <path fill="none" d="M498.1487 414 L546.3313 414" clip-path="url(#clipPath2)"/>
    </g>
    <g stroke-linecap="butt" transform="matrix(0.7469,0,0,0.7469,-213.61,-96.3485)" stroke-miterlimit="1.45">
      <path d="M554.3313 414 L542.3313 409 L545.3313 414 L542.3313 419 Z" clip-path="url(#clipPath2)" stroke="none"/>
      <path fill="none" d="M742.607 414 L790.7897 414" clip-path="url(#clipPath2)"/>
      <path d="M798.7897 414 L786.7897 409 L789.7897 414 L786.7897 419 Z" clip-path="url(#clipPath2)" stroke="none"/>
      <path fill="none" d="M987.0654 414 L1035.248 414" clip-path="url(#clipPath2)"/>
      <path d="M1043.248 414 L1031.248 409 L1034.248 414 L1031.248 419 Z" clip-path="url(#clipPath2)" stroke="none"/>
      <path fill="none" d="M1231.5237 414 L1279.7063 414" clip-path="url(#clipPath2)"/>
      <path d="M1287.7063 414 L1275.7063 409 L1278.7063 414 L1275.7063 419 Z" clip-path="url(#clipPath2)" stroke="none"/>
      <path fill="none" d="M489.3669 181.5616 L611.6508 181.5616" clip-path="url(#clipPath2)"/>
      <path d="M619.6508 181.5616 L607.6508 176.5616 L610.6508 181.5616 L607.6508 186.5616 Z" clip-path="url(#clipPath2)" stroke="none"/>
      <path fill="none" d="M807.9479 182.0881 L937.3203 182.8116" clip-path="url(#clipPath2)"/>
      <path d="M945.3201 182.8564 L933.3483 177.7893 L936.3203 182.806 L933.2924 187.7892 Z" clip-path="url(#clipPath2)" stroke="none"/>
      <path fill="none" d="M1038.329 214.7068 L1038.9962 268.5169" clip-path="url(#clipPath2)" stroke="olive"/>
      <path fill="olive" d="M1039.0953 276.5163 L1043.9463 264.4553 L1038.9839 267.517 L1033.947 264.5792 Z" clip-path="url(#clipPath2)" stroke="none"/>
      <text x="1012.3715" y="249.8688" clip-path="url(#clipPath2)" fill="green" font-family="sans-serif" stroke="none" xml:space="preserve">OK</text>
      <path fill="none" d="M1130.6533 183.8671 L1371.495 185.147 L1371.1548 213.3987" clip-path="url(#clipPath2)" stroke="red"/>
      <path fill="red" d="M1371.0585 221.3982 L1376.2026 209.4592 L1371.1669 212.3988 L1366.2032 209.3388 Z" clip-path="url(#clipPath2)" stroke="none"/>
      <text x="1239.525" y="179.53" clip-path="url(#clipPath2)" fill="red" font-family="sans-serif" stroke="none" xml:space="preserve">KO</text>
      <path fill="none" d="M1130.2444 308.989 L1374.2471 312.0427 L1373.0543 292.2409" clip-path="url(#clipPath2)" stroke="red"/>
      <path fill="red" d="M1372.5734 284.2553 L1368.3038 296.5342 L1373.1145 293.2391 L1378.2858 295.933 Z" clip-path="url(#clipPath2)" stroke="none"/>
      <text x="1239.5753" y="306.6697" clip-path="url(#clipPath2)" fill="red" font-family="sans-serif" stroke="none" xml:space="preserve">KO</text>
      <path fill="none" d="M946.7915 307.3754 L801.2254 306.6858" clip-path="url(#clipPath2)" stroke="green"/>
      <path fill="green" d="M793.2255 306.6479 L805.2017 311.7047 L802.2253 306.6905 L805.249 301.7048 Z" clip-path="url(#clipPath2)" stroke="none"/>
      <text x="860.6264" y="281.1621" clip-path="url(#clipPath2)" fill="green" font-family="sans-serif" stroke="none" xml:space="preserve">OK</text>
      <path fill="none" d="M646.7998 306.301 L405.8794 306.301 L405.0763 374.5679" clip-path="url(#clipPath2)"/>
      <path d="M404.9822 382.5674 L410.123 370.627 L405.088 373.568 L400.1237 370.5094 Z" clip-path="url(#clipPath2)" stroke="none"/>
    </g>
  </g>
</svg>
